<svg xmlns="http://www.w3.org/2000/svg" xmlns:xlink="http://www.w3.org/1999/xlink" width="1255pt" height="2354pt" viewBox="0.00 0.00 1255.00 2354.00">
<g id="graph0" class="graph" transform="scale(1 1) rotate(0) translate(4 2350)">
<title>FrontendArchitecture</title>
<polygon fill="white" stroke="none" points="-4,4 -4,-2350 1250.96,-2350 1250.96,4 -4,4"/>
<g id="clust1" class="cluster">
<title>cluster_root</title>
<polygon fill="none" stroke="#9e9e9e" points="8,-2045 8,-2338 1012.54,-2338 1012.54,-2045 8,-2045"/>
<text xml:space="preserve" text-anchor="middle" x="510.27" y="-2321.4" font-family="Helvetica,sans-Serif" font-size="14.00">Root / Project Files (Build + App Shell)</text>
</g>
<g id="clust2" class="cluster">
<title>cluster_src</title>
<polygon fill="none" stroke="#4e79a7" points="228.58,-44 228.58,-2037 1096.79,-2037 1096.79,-44 228.58,-44"/>
<text xml:space="preserve" text-anchor="middle" x="662.69" y="-2020.4" font-family="Helvetica,sans-Serif" font-size="14.00">src (Frontend Runtime)</text>
</g>
<g id="clust3" class="cluster">
<title>cluster_src_api</title>
<polygon fill="none" stroke="#a0bce3" points="621.89,-734 621.89,-811 1058,-811 1058,-734 621.89,-734"/>
<text xml:space="preserve" text-anchor="middle" x="839.95" y="-794.4" font-family="Helvetica,sans-Serif" font-size="14.00">src/api (Backend API Client boundary)</text>
</g>
<g id="clust4" class="cluster">
<title>cluster_src_screens</title>
<polygon fill="none" stroke="#a0bce3" points="304.1,-52 304.1,-129 760.88,-129 760.88,-52 304.1,-52"/>
<text xml:space="preserve" text-anchor="middle" x="532.49" y="-112.4" font-family="Helvetica,sans-Serif" font-size="14.00">src/screens</text>
</g>
<g id="clust5" class="cluster">
<title>cluster_src_components</title>
<polygon fill="none" stroke="#a0bce3" points="557.75,-137 557.75,-533 1088.79,-533 1088.79,-137 557.75,-137"/>
<text xml:space="preserve" text-anchor="middle" x="823.27" y="-516.4" font-family="Helvetica,sans-Serif" font-size="14.00">src/components</text>
</g>
<g id="clust6" class="cluster">
<title>cluster_src_components_common</title>
<polygon fill="none" stroke="#a0bce3" points="565.75,-145 565.75,-276 792.28,-276 792.28,-145 565.75,-145"/>
<text xml:space="preserve" text-anchor="middle" x="679.02" y="-259.4" font-family="Helvetica,sans-Serif" font-size="14.00">src/components/common</text>
</g>
<g id="clust7" class="cluster">
<title>cluster_src_components_map</title>
<polygon fill="none" stroke="#a0bce3" points="585.21,-284 585.21,-415 1080.79,-415 1080.79,-284 585.21,-284"/>
<text xml:space="preserve" text-anchor="middle" x="833" y="-398.4" font-family="Helvetica,sans-Serif" font-size="14.00">src/components/map</text>
</g>
<g id="clust8" class="cluster">
<title>cluster_src_components_sheet</title>
<polygon fill="none" stroke="#a0bce3" points="568.8,-423 568.8,-500 789.23,-500 789.23,-423 568.8,-423"/>
<text xml:space="preserve" text-anchor="middle" x="679.02" y="-483.4" font-family="Helvetica,sans-Serif" font-size="14.00">src/components/sheet</text>
</g>
<g id="clust9" class="cluster">
<title>cluster_src_hooks</title>
<polygon fill="none" stroke="#a0bce3" points="236.58,-137 236.58,-1186 530.75,-1186 530.75,-137 236.58,-137"/>
<text xml:space="preserve" text-anchor="middle" x="383.67" y="-1169.4" font-family="Helvetica,sans-Serif" font-size="14.00">src/hooks (State + Data Fetch Orchestration)</text>
</g>
<g id="clust10" class="cluster">
<title>cluster_src_constants</title>
<polygon fill="none" stroke="#a0bce3" points="305.48,-1194 305.48,-1325 460.86,-1325 460.86,-1194 305.48,-1194"/>
<text xml:space="preserve" text-anchor="middle" x="383.17" y="-1308.4" font-family="Helvetica,sans-Serif" font-size="14.00">src/constants</text>
</g>
<g id="clust11" class="cluster">
<title>cluster_src_utils</title>
<polygon fill="none" stroke="#a0bce3" points="295.2,-1333 295.2,-2004 471.14,-2004 471.14,-1333 295.2,-1333"/>
<text xml:space="preserve" text-anchor="middle" x="383.17" y="-1987.4" font-family="Helvetica,sans-Serif" font-size="14.00">src/utils (Pure Helpers)</text>
</g>
<g id="clust12" class="cluster">
<title>cluster_src_styles</title>
<polygon fill="none" stroke="#a0bce3" points="901.24,-541 901.24,-726 1053.83,-726 1053.83,-541 901.24,-541"/>
<text xml:space="preserve" text-anchor="middle" x="977.54" y="-709.4" font-family="Helvetica,sans-Serif" font-size="14.00">src/styles</text>
</g>
<g id="clust13" class="cluster">
<title>cluster_assets</title>
<polygon fill="none" stroke="#59a14f" points="1115.79,-284 1115.79,-361 1238.96,-361 1238.96,-284 1115.79,-284"/>
<text xml:space="preserve" text-anchor="middle" x="1177.38" y="-344.4" font-family="Helvetica,sans-Serif" font-size="14.00">assets</text>
</g>
<!-- Backend API (Service) -->
<g id="node1" class="node">
<title>Backend API (Service)</title>
<ellipse fill="#fdebd2" stroke="black" cx="977.54" cy="-18" rx="70.11" ry="18"/>
<text xml:space="preserve" text-anchor="middle" x="977.54" y="-15" font-family="Helvetica,sans-Serif" font-size="10.00">Backend API (Service)</text>
</g>
<!-- .env (public config only) -->
<g id="node2" class="node">
<title>.env (public config only)</title>
<polygon fill="#f1f3f4" stroke="black" points="137.05,-2143 16,-2143 16,-2107 137.05,-2107 137.05,-2143"/>
<text xml:space="preserve" text-anchor="middle" x="76.53" y="-2122" font-family="Helvetica,sans-Serif" font-size="10.00">.env (public config only)</text>
</g>
<!-- loadEnv.js -->
<g id="node7" class="node">
<title>loadEnv.js</title>
<path fill="none" stroke="black" d="M402.24,-2143C402.24,-2143 364.1,-2143 364.1,-2143 358.1,-2143 352.1,-2137 352.1,-2131 352.1,-2131 352.1,-2119 352.1,-2119 352.1,-2113 358.1,-2107 364.1,-2107 364.1,-2107 402.24,-2107 402.24,-2107 408.24,-2107 414.24,-2113 414.24,-2119 414.24,-2119 414.24,-2131 414.24,-2131 414.24,-2137 408.24,-2143 402.24,-2143"/>
<text xml:space="preserve" text-anchor="middle" x="383.17" y="-2122" font-family="Helvetica,sans-Serif" font-size="10.00">loadEnv.js</text>
</g>
<!-- .env (public config only)&#45;&gt;loadEnv.js -->
<g id="edge2" class="edge">
<title>.env (public config only)-&gt;loadEnv.js</title>
<path fill="none" stroke="black" stroke-dasharray="5,2" d="M137.35,-2125C197.28,-2125 287.95,-2125 340.49,-2125"/>
<polygon fill="black" stroke="black" points="340.21,-2128.5 350.21,-2125 340.21,-2121.5 340.21,-2128.5"/>
<text xml:space="preserve" text-anchor="middle" x="187.82" y="-2127.7" font-family="Helvetica,sans-Serif" font-size="9.00">build-time config</text>
</g>
<!-- App.js -->
<g id="node3" class="node">
<title>App.js</title>
<path fill="none" stroke="black" d="M91.53,-2089C91.53,-2089 61.53,-2089 61.53,-2089 55.53,-2089 49.53,-2083 49.53,-2077 49.53,-2077 49.53,-2065 49.53,-2065 49.53,-2059 55.53,-2053 61.53,-2053 61.53,-2053 91.53,-2053 91.53,-2053 97.53,-2053 103.53,-2059 103.53,-2065 103.53,-2065 103.53,-2077 103.53,-2077 103.53,-2083 97.53,-2089 91.53,-2089"/>
<text xml:space="preserve" text-anchor="middle" x="76.53" y="-2068" font-family="Helvetica,sans-Serif" font-size="10.00">App.js</text>
</g>
<!-- src/screens/TransitScreen.js -->
<g id="node12" class="node">
<title>src/screens/TransitScreen.js</title>
<path fill="none" stroke="black" d="M442.24,-96C442.24,-96 324.1,-96 324.1,-96 318.1,-96 312.1,-90 312.1,-84 312.1,-84 312.1,-72 312.1,-72 312.1,-66 318.1,-60 324.1,-60 324.1,-60 442.24,-60 442.24,-60 448.24,-60 454.24,-66 454.24,-72 454.24,-72 454.24,-84 454.24,-84 454.24,-90 448.24,-96 442.24,-96"/>
<text xml:space="preserve" text-anchor="middle" x="383.17" y="-75" font-family="Helvetica,sans-Serif" font-size="10.00">src/screens/TransitScreen.js</text>
</g>
<!-- App.js&#45;&gt;src/screens/TransitScreen.js -->
<g id="edge5" class="edge">
<title>App.js-&gt;src/screens/TransitScreen.js</title>
<path fill="none" stroke="black" d="M77.76,-2052.61C80.32,-1864.58 105.34,-294.33 228.58,-133 245.96,-110.25 273.56,-96.89 300.6,-89.06"/>
<polygon fill="black" stroke="black" points="301.47,-92.44 310.25,-86.51 299.69,-85.68 301.47,-92.44"/>
</g>
<!-- app.config.js -->
<g id="node4" class="node">
<title>app.config.js</title>
<path fill="none" stroke="black" d="M703.09,-2143C703.09,-2143 654.94,-2143 654.94,-2143 648.94,-2143 642.94,-2137 642.94,-2131 642.94,-2131 642.94,-2119 642.94,-2119 642.94,-2113 648.94,-2107 654.94,-2107 654.94,-2107 703.09,-2107 703.09,-2107 709.09,-2107 715.09,-2113 715.09,-2119 715.09,-2119 715.09,-2131 715.09,-2131 715.09,-2137 709.09,-2143 703.09,-2143"/>
<text xml:space="preserve" text-anchor="middle" x="679.02" y="-2122" font-family="Helvetica,sans-Serif" font-size="10.00">app.config.js</text>
</g>
<!-- app.json -->
<g id="node5" class="node">
<title>app.json</title>
<path fill="none" stroke="black" d="M992.54,-2143C992.54,-2143 962.54,-2143 962.54,-2143 956.54,-2143 950.54,-2137 950.54,-2131 950.54,-2131 950.54,-2119 950.54,-2119 950.54,-2113 956.54,-2107 962.54,-2107 962.54,-2107 992.54,-2107 992.54,-2107 998.54,-2107 1004.54,-2113 1004.54,-2119 1004.54,-2119 1004.54,-2131 1004.54,-2131 1004.54,-2137 998.54,-2143 992.54,-2143"/>
<text xml:space="preserve" text-anchor="middle" x="977.54" y="-2122" font-family="Helvetica,sans-Serif" font-size="10.00">app.json</text>
</g>
<!-- app.config.js&#45;&gt;app.json -->
<g id="edge4" class="edge">
<title>app.config.js-&gt;app.json</title>
<path fill="none" stroke="black" d="M715.49,-2125C771.75,-2125 880.95,-2125 938.67,-2125"/>
<polygon fill="black" stroke="black" points="938.66,-2128.5 948.66,-2125 938.66,-2121.5 938.66,-2128.5"/>
</g>
<!-- babel.config.js -->
<g id="node6" class="node">
<title>babel.config.js</title>
<path fill="none" stroke="black" d="M104.49,-2197C104.49,-2197 48.56,-2197 48.56,-2197 42.56,-2197 36.56,-2191 36.56,-2185 36.56,-2185 36.56,-2173 36.56,-2173 36.56,-2167 42.56,-2161 48.56,-2161 48.56,-2161 104.49,-2161 104.49,-2161 110.49,-2161 116.49,-2167 116.49,-2173 116.49,-2173 116.49,-2185 116.49,-2185 116.49,-2191 110.49,-2197 104.49,-2197"/>
<text xml:space="preserve" text-anchor="middle" x="76.53" y="-2176" font-family="Helvetica,sans-Serif" font-size="10.00">babel.config.js</text>
</g>
<!-- loadEnv.js&#45;&gt;app.config.js -->
<g id="edge3" class="edge">
<title>loadEnv.js-&gt;app.config.js</title>
<path fill="none" stroke="black" d="M414.51,-2125C466.03,-2125 570.93,-2125 631.69,-2125"/>
<polygon fill="black" stroke="black" points="631.35,-2128.5 641.35,-2125 631.35,-2121.5 631.35,-2128.5"/>
</g>
<!-- package.json -->
<g id="node8" class="node">
<title>package.json</title>
<path fill="none" stroke="black" d="M101.99,-2251C101.99,-2251 51.06,-2251 51.06,-2251 45.06,-2251 39.06,-2245 39.06,-2239 39.06,-2239 39.06,-2227 39.06,-2227 39.06,-2221 45.06,-2215 51.06,-2215 51.06,-2215 101.99,-2215 101.99,-2215 107.99,-2215 113.99,-2221 113.99,-2227 113.99,-2227 113.99,-2239 113.99,-2239 113.99,-2245 107.99,-2251 101.99,-2251"/>
<text xml:space="preserve" text-anchor="middle" x="76.53" y="-2230" font-family="Helvetica,sans-Serif" font-size="10.00">package.json</text>
</g>
<!-- package&#45;lock.json -->
<g id="node9" class="node">
<title>package-lock.json</title>
<path fill="none" stroke="black" d="M112.55,-2305C112.55,-2305 40.5,-2305 40.5,-2305 34.5,-2305 28.5,-2299 28.5,-2293 28.5,-2293 28.5,-2281 28.5,-2281 28.5,-2275 34.5,-2269 40.5,-2269 40.5,-2269 112.55,-2269 112.55,-2269 118.55,-2269 124.55,-2275 124.55,-2281 124.55,-2281 124.55,-2293 124.55,-2293 124.55,-2299 118.55,-2305 112.55,-2305"/>
<text xml:space="preserve" text-anchor="middle" x="76.53" y="-2284" font-family="Helvetica,sans-Serif" font-size="10.00">package-lock.json</text>
</g>
<!-- src/api/ApiClient.js -->
<g id="node10" class="node">
<title>src/api/ApiClient.js</title>
<polygon fill="#e8f0fe" stroke="black" points="728.14,-778 629.89,-778 629.89,-742 728.14,-742 728.14,-778"/>
<text xml:space="preserve" text-anchor="middle" x="679.02" y="-757" font-family="Helvetica,sans-Serif" font-size="10.00">src/api/ApiClient.js</text>
</g>
<!-- src/api/ApiClient.js&#45;&gt;Backend API (Service) -->
<g id="edge1" class="edge">
<title>src/api/ApiClient.js-&gt;Backend API (Service)</title>
<path fill="none" stroke="black" d="M688.52,-741.51C707.7,-699.56 755.58,-593.85 792.28,-504 862.56,-331.98 939,-122.23 966.21,-46.76"/>
<polygon fill="black" stroke="black" points="969.4,-48.24 969.49,-37.65 962.81,-45.87 969.4,-48.24"/>
<text xml:space="preserve" text-anchor="middle" x="833.28" y="-480.78" font-family="Helvetica,sans-Serif" font-size="9.00">REST (HTTPS)</text>
</g>
<!-- src/utils/resolveApiBaseUrl.js -->
<g id="node11" class="node">
<title>src/utils/resolveApiBaseUrl.js</title>
<path fill="none" stroke="black" d="M1038,-778C1038,-778 917.07,-778 917.07,-778 911.07,-778 905.07,-772 905.07,-766 905.07,-766 905.07,-754 905.07,-754 905.07,-748 911.07,-742 917.07,-742 917.07,-742 1038,-742 1038,-742 1044,-742 1050,-748 1050,-754 1050,-754 1050,-766 1050,-766 1050,-772 1044,-778 1038,-778"/>
<text xml:space="preserve" text-anchor="middle" x="977.54" y="-757" font-family="Helvetica,sans-Serif" font-size="10.00">src/utils/resolveApiBaseUrl.js</text>
</g>
<!-- src/api/ApiClient.js&#45;&gt;src/utils/resolveApiBaseUrl.js -->
<g id="edge18" class="edge">
<title>src/api/ApiClient.js-&gt;src/utils/resolveApiBaseUrl.js</title>
<path fill="none" stroke="black" d="M728.32,-760C772.89,-760 840.01,-760 893.22,-760"/>
<polygon fill="black" stroke="black" points="893.18,-763.5 903.18,-760 893.18,-756.5 893.18,-763.5"/>
</g>
<!-- src/screens/SettingsScreen.js -->
<g id="node13" class="node">
<title>src/screens/SettingsScreen.js</title>
<path fill="none" stroke="black" d="M740.88,-96C740.88,-96 617.16,-96 617.16,-96 611.16,-96 605.16,-90 605.16,-84 605.16,-84 605.16,-72 605.16,-72 605.16,-66 611.16,-60 617.16,-60 617.16,-60 740.88,-60 740.88,-60 746.88,-60 752.88,-66 752.88,-72 752.88,-72 752.88,-84 752.88,-84 752.88,-90 746.88,-96 740.88,-96"/>
<text xml:space="preserve" text-anchor="middle" x="679.02" y="-75" font-family="Helvetica,sans-Serif" font-size="10.00">src/screens/SettingsScreen.js</text>
</g>
<!-- src/screens/TransitScreen.js&#45;&gt;src/screens/SettingsScreen.js -->
<g id="edge10" class="edge">
<title>src/screens/TransitScreen.js-&gt;src/screens/SettingsScreen.js</title>
<path fill="none" stroke="black" d="M454.55,-78C496.34,-78 549.57,-78 593.61,-78"/>
<polygon fill="black" stroke="black" points="593.37,-81.5 603.37,-78 593.37,-74.5 593.37,-81.5"/>
</g>
<!-- src/components/common/LoadingOverlay.js -->
<g id="node14" class="node">
<title>src/components/common/LoadingOverlay.js</title>
<path fill="none" stroke="black" d="M772.28,-189C772.28,-189 585.75,-189 585.75,-189 579.75,-189 573.75,-183 573.75,-177 573.75,-177 573.75,-165 573.75,-165 573.75,-159 579.75,-153 585.75,-153 585.75,-153 772.28,-153 772.28,-153 778.28,-153 784.28,-159 784.28,-165 784.28,-165 784.28,-177 784.28,-177 784.28,-183 778.28,-189 772.28,-189"/>
<text xml:space="preserve" text-anchor="middle" x="679.02" y="-168" font-family="Helvetica,sans-Serif" font-size="10.00">src/components/common/LoadingOverlay.js</text>
</g>
<!-- src/screens/TransitScreen.js&#45;&gt;src/components/common/LoadingOverlay.js -->
<g id="edge8" class="edge">
<title>src/screens/TransitScreen.js-&gt;src/components/common/LoadingOverlay.js</title>
<path fill="none" stroke="black" d="M454.67,-88.33C485.53,-95.11 521.14,-106.16 549.75,-124 554.29,-126.83 553.26,-130.09 557.75,-133 567.06,-139.03 577.38,-144.16 587.96,-148.51"/>
<polygon fill="black" stroke="black" points="586.6,-151.74 597.19,-152.06 589.11,-145.2 586.6,-151.74"/>
</g>
<!-- src/components/common/StatusBanner.js -->
<g id="node15" class="node">
<title>src/components/common/StatusBanner.js</title>
<path fill="none" stroke="black" d="M767.56,-243C767.56,-243 590.48,-243 590.48,-243 584.48,-243 578.48,-237 578.48,-231 578.48,-231 578.48,-219 578.48,-219 578.48,-213 584.48,-207 590.48,-207 590.48,-207 767.56,-207 767.56,-207 773.56,-207 779.56,-213 779.56,-219 779.56,-219 779.56,-231 779.56,-231 779.56,-237 773.56,-243 767.56,-243"/>
<text xml:space="preserve" text-anchor="middle" x="679.02" y="-222" font-family="Helvetica,sans-Serif" font-size="10.00">src/components/common/StatusBanner.js</text>
</g>
<!-- src/screens/TransitScreen.js&#45;&gt;src/components/common/StatusBanner.js -->
<g id="edge9" class="edge">
<title>src/screens/TransitScreen.js-&gt;src/components/common/StatusBanner.js</title>
<path fill="none" stroke="black" d="M454.39,-85.95C488.29,-93.52 526.55,-108.27 549.75,-137 566.93,-158.27 539.31,-177.81 557.75,-198 561.04,-201.6 564.7,-204.77 568.63,-207.57"/>
<polygon fill="black" stroke="black" points="566.6,-210.43 576.96,-212.63 570.23,-204.45 566.6,-210.43"/>
</g>
<!-- src/components/map/TransitMap.js -->
<g id="node16" class="node">
<title>src/components/map/TransitMap.js</title>
<path fill="none" stroke="black" d="M752.82,-355C752.82,-355 605.21,-355 605.21,-355 599.21,-355 593.21,-349 593.21,-343 593.21,-343 593.21,-331 593.21,-331 593.21,-325 599.21,-319 605.21,-319 605.21,-319 752.82,-319 752.82,-319 758.82,-319 764.82,-325 764.82,-331 764.82,-331 764.82,-343 764.82,-343 764.82,-349 758.82,-355 752.82,-355"/>
<text xml:space="preserve" text-anchor="middle" x="679.02" y="-334" font-family="Helvetica,sans-Serif" font-size="10.00">src/components/map/TransitMap.js</text>
</g>
<!-- src/screens/TransitScreen.js&#45;&gt;src/components/map/TransitMap.js -->
<g id="edge6" class="edge">
<title>src/screens/TransitScreen.js-&gt;src/components/map/TransitMap.js</title>
<path fill="none" stroke="black" d="M444.65,-96.48C471.75,-105.81 503.63,-118.29 530.75,-133 539.97,-138 544.74,-137.78 549.75,-147 563.89,-173.01 541.18,-255.47 557.75,-280 567.66,-294.67 582.41,-305.66 598.21,-313.86"/>
<polygon fill="black" stroke="black" points="596.26,-316.81 606.79,-317.97 599.28,-310.49 596.26,-316.81"/>
</g>
<!-- src/components/sheet/TripPlannerSheet.js -->
<g id="node19" class="node">
<title>src/components/sheet/TripPlannerSheet.js</title>
<path fill="none" stroke="black" d="M769.23,-467C769.23,-467 588.8,-467 588.8,-467 582.8,-467 576.8,-461 576.8,-455 576.8,-455 576.8,-443 576.8,-443 576.8,-437 582.8,-431 588.8,-431 588.8,-431 769.23,-431 769.23,-431 775.23,-431 781.23,-437 781.23,-443 781.23,-443 781.23,-455 781.23,-455 781.23,-461 775.23,-467 769.23,-467"/>
<text xml:space="preserve" text-anchor="middle" x="679.02" y="-446" font-family="Helvetica,sans-Serif" font-size="10.00">src/components/sheet/TripPlannerSheet.js</text>
</g>
<!-- src/screens/TransitScreen.js&#45;&gt;src/components/sheet/TripPlannerSheet.js -->
<g id="edge7" class="edge">
<title>src/screens/TransitScreen.js-&gt;src/components/sheet/TripPlannerSheet.js</title>
<path fill="none" stroke="black" d="M454.63,-88.46C482.42,-96.19 512.11,-109.63 530.75,-133 569.91,-182.09 543.81,-210.49 549.75,-273 551.29,-289.17 547.4,-406.48 557.75,-419 560.56,-422.39 563.68,-425.44 567.05,-428.16"/>
<polygon fill="black" stroke="black" points="565.05,-431.03 575.27,-433.81 569.01,-425.26 565.05,-431.03"/>
</g>
<!-- src/components/map/StopMarkers.js -->
<g id="node17" class="node">
<title>src/components/map/StopMarkers.js</title>
<path fill="none" stroke="black" d="M1054.68,-382C1054.68,-382 900.4,-382 900.4,-382 894.4,-382 888.4,-376 888.4,-370 888.4,-370 888.4,-358 888.4,-358 888.4,-352 894.4,-346 900.4,-346 900.4,-346 1054.68,-346 1054.68,-346 1060.68,-346 1066.68,-352 1066.68,-358 1066.68,-358 1066.68,-370 1066.68,-370 1066.68,-376 1060.68,-382 1054.68,-382"/>
<text xml:space="preserve" text-anchor="middle" x="977.54" y="-361" font-family="Helvetica,sans-Serif" font-size="10.00">src/components/map/StopMarkers.js</text>
</g>
<!-- src/components/map/TransitMap.js&#45;&gt;src/components/map/StopMarkers.js -->
<g id="edge20" class="edge">
<title>src/components/map/TransitMap.js-&gt;src/components/map/StopMarkers.js</title>
<path fill="none" stroke="black" d="M764.99,-344.74C799.88,-347.91 840.54,-351.62 876.83,-354.92"/>
<polygon fill="black" stroke="black" points="876.16,-358.37 886.43,-355.8 876.79,-351.4 876.16,-358.37"/>
</g>
<!-- src/components/map/VehicleMarkers.js -->
<g id="node18" class="node">
<title>src/components/map/VehicleMarkers.js</title>
<path fill="none" stroke="black" d="M1060.79,-328C1060.79,-328 894.28,-328 894.28,-328 888.28,-328 882.28,-322 882.28,-316 882.28,-316 882.28,-304 882.28,-304 882.28,-298 888.28,-292 894.28,-292 894.28,-292 1060.79,-292 1060.79,-292 1066.79,-292 1072.79,-298 1072.79,-304 1072.79,-304 1072.79,-316 1072.79,-316 1072.79,-322 1066.79,-328 1060.79,-328"/>
<text xml:space="preserve" text-anchor="middle" x="977.54" y="-307" font-family="Helvetica,sans-Serif" font-size="10.00">src/components/map/VehicleMarkers.js</text>
</g>
<!-- src/components/map/TransitMap.js&#45;&gt;src/components/map/VehicleMarkers.js -->
<g id="edge21" class="edge">
<title>src/components/map/TransitMap.js-&gt;src/components/map/VehicleMarkers.js</title>
<path fill="none" stroke="black" d="M764.99,-329.26C797.96,-326.26 836.07,-322.79 870.78,-319.63"/>
<polygon fill="black" stroke="black" points="870.77,-323.15 880.41,-318.75 870.14,-316.17 870.77,-323.15"/>
</g>
<!-- src/styles/AppStyles.js -->
<g id="node53" class="node">
<title>src/styles/AppStyles.js</title>
<path fill="none" stroke="black" d="M1023.27,-585C1023.27,-585 931.8,-585 931.8,-585 925.8,-585 919.8,-579 919.8,-573 919.8,-573 919.8,-561 919.8,-561 919.8,-555 925.8,-549 931.8,-549 931.8,-549 1023.27,-549 1023.27,-549 1029.27,-549 1035.27,-555 1035.27,-561 1035.27,-561 1035.27,-573 1035.27,-573 1035.27,-579 1029.27,-585 1023.27,-585"/>
<text xml:space="preserve" text-anchor="middle" x="977.54" y="-564" font-family="Helvetica,sans-Serif" font-size="10.00">src/styles/AppStyles.js</text>
</g>
<!-- src/components/map/TransitMap.js&#45;&gt;src/styles/AppStyles.js -->
<g id="edge22" class="edge">
<title>src/components/map/TransitMap.js-&gt;src/styles/AppStyles.js</title>
<path fill="none" stroke="black" d="M705.68,-355.23C728.6,-371.64 762.97,-396.54 792.28,-419 847.08,-460.98 909.43,-511.71 945.74,-541.55"/>
<polygon fill="black" stroke="black" points="943.28,-544.05 953.22,-547.71 947.73,-538.65 943.28,-544.05"/>
</g>
<!-- assets/bus_icon.png -->
<g id="node56" class="node">
<title>assets/bus_icon.png</title>
<path fill="none" stroke="black" d="M1218.96,-328C1218.96,-328 1135.79,-328 1135.79,-328 1129.79,-328 1123.79,-322 1123.79,-316 1123.79,-316 1123.79,-304 1123.79,-304 1123.79,-298 1129.79,-292 1135.79,-292 1135.79,-292 1218.96,-292 1218.96,-292 1224.96,-292 1230.96,-298 1230.96,-304 1230.96,-304 1230.96,-316 1230.96,-316 1230.96,-322 1224.96,-328 1218.96,-328"/>
<text xml:space="preserve" text-anchor="middle" x="1177.38" y="-307" font-family="Helvetica,sans-Serif" font-size="10.00">assets/bus_icon.png</text>
</g>
<!-- src/components/map/VehicleMarkers.js&#45;&gt;assets/bus_icon.png -->
<g id="edge19" class="edge">
<title>src/components/map/VehicleMarkers.js-&gt;assets/bus_icon.png</title>
<path fill="none" stroke="black" d="M1073.11,-310C1086.34,-310 1099.68,-310 1112.18,-310"/>
<polygon fill="black" stroke="black" points="1111.87,-313.5 1121.87,-310 1111.87,-306.5 1111.87,-313.5"/>
</g>
<!-- src/components/sheet/TripPlannerSheet.js&#45;&gt;src/styles/AppStyles.js -->
<g id="edge23" class="edge">
<title>src/components/sheet/TripPlannerSheet.js-&gt;src/styles/AppStyles.js</title>
<path fill="none" stroke="black" d="M726.35,-467.44C778.68,-488.26 863.85,-522.16 920.04,-544.52"/>
<polygon fill="black" stroke="black" points="918.54,-547.69 929.12,-548.13 921.13,-541.18 918.54,-547.69"/>
</g>
<!-- src/hooks/useDestinationSearch.js -->
<g id="node20" class="node">
<title>src/hooks/useDestinationSearch.js</title>
<path fill="none" stroke="black" d="M455.87,-937C455.87,-937 310.46,-937 310.46,-937 304.46,-937 298.46,-931 298.46,-925 298.46,-925 298.46,-913 298.46,-913 298.46,-907 304.46,-901 310.46,-901 310.46,-901 455.87,-901 455.87,-901 461.87,-901 467.87,-907 467.87,-913 467.87,-913 467.87,-925 467.87,-925 467.87,-931 461.87,-937 455.87,-937"/>
<text xml:space="preserve" text-anchor="middle" x="383.17" y="-916" font-family="Helvetica,sans-Serif" font-size="10.00">src/hooks/useDestinationSearch.js</text>
</g>
<!-- src/hooks/useDestinationSearch.js&#45;&gt;src/api/ApiClient.js -->
<g id="edge16" class="edge">
<title>src/hooks/useDestinationSearch.js-&gt;src/api/ApiClient.js</title>
<path fill="none" stroke="black" d="M468.11,-911.64C489.29,-907.63 511.47,-901.47 530.75,-892 582.65,-866.52 629.98,-817.45 656.31,-786.85"/>
<polygon fill="black" stroke="black" points="658.72,-789.42 662.5,-779.52 653.37,-784.9 658.72,-789.42"/>
</g>
<!-- src/hooks/useDrawerSheet.js -->
<g id="node21" class="node">
<title>src/hooks/useDrawerSheet.js</title>
<path fill="none" stroke="black" d="M444.2,-235C444.2,-235 322.14,-235 322.14,-235 316.14,-235 310.14,-229 310.14,-223 310.14,-223 310.14,-211 310.14,-211 310.14,-205 316.14,-199 322.14,-199 322.14,-199 444.2,-199 444.2,-199 450.2,-199 456.2,-205 456.2,-211 456.2,-211 456.2,-223 456.2,-223 456.2,-229 450.2,-235 444.2,-235"/>
<text xml:space="preserve" text-anchor="middle" x="383.17" y="-214" font-family="Helvetica,sans-Serif" font-size="10.00">src/hooks/useDrawerSheet.js</text>
</g>
<!-- src/hooks/useItinerary.js -->
<g id="node22" class="node">
<title>src/hooks/useItinerary.js</title>
<path fill="none" stroke="black" d="M433.08,-1153C433.08,-1153 333.26,-1153 333.26,-1153 327.26,-1153 321.26,-1147 321.26,-1141 321.26,-1141 321.26,-1129 321.26,-1129 321.26,-1123 327.26,-1117 333.26,-1117 333.26,-1117 433.08,-1117 433.08,-1117 439.08,-1117 445.08,-1123 445.08,-1129 445.08,-1129 445.08,-1141 445.08,-1141 445.08,-1147 439.08,-1153 433.08,-1153"/>
<text xml:space="preserve" text-anchor="middle" x="383.17" y="-1132" font-family="Helvetica,sans-Serif" font-size="10.00">src/hooks/useItinerary.js</text>
</g>
<!-- src/hooks/useItinerary.js&#45;&gt;src/api/ApiClient.js -->
<g id="edge17" class="edge">
<title>src/hooks/useItinerary.js-&gt;src/api/ApiClient.js</title>
<path fill="none" stroke="black" d="M445.27,-1136.58C473.94,-1134.34 506.94,-1127.11 530.75,-1108 633.8,-1025.3 665.86,-857.32 674.84,-789.44"/>
<polygon fill="black" stroke="black" points="678.28,-790.2 676.04,-779.84 671.33,-789.33 678.28,-790.2"/>
</g>
<!-- src/hooks/usePinnedRoutes.js -->
<g id="node23" class="node">
<title>src/hooks/usePinnedRoutes.js</title>
<path fill="none" stroke="black" d="M446.43,-343C446.43,-343 319.91,-343 319.91,-343 313.91,-343 307.91,-337 307.91,-331 307.91,-331 307.91,-319 307.91,-319 307.91,-313 313.91,-307 319.91,-307 319.91,-307 446.43,-307 446.43,-307 452.43,-307 458.43,-313 458.43,-319 458.43,-319 458.43,-331 458.43,-331 458.43,-337 452.43,-343 446.43,-343"/>
<text xml:space="preserve" text-anchor="middle" x="383.17" y="-322" font-family="Helvetica,sans-Serif" font-size="10.00">src/hooks/usePinnedRoutes.js</text>
</g>
<!-- src/hooks/useRealtimeVehicles.js -->
<g id="node24" class="node">
<title>src/hooks/useRealtimeVehicles.js</title>
<path fill="none" stroke="black" d="M453.64,-181C453.64,-181 312.69,-181 312.69,-181 306.69,-181 300.69,-175 300.69,-169 300.69,-169 300.69,-157 300.69,-157 300.69,-151 306.69,-145 312.69,-145 312.69,-145 453.64,-145 453.64,-145 459.64,-145 465.64,-151 465.64,-157 465.64,-157 465.64,-169 465.64,-169 465.64,-175 459.64,-181 453.64,-181"/>
<text xml:space="preserve" text-anchor="middle" x="383.17" y="-160" font-family="Helvetica,sans-Serif" font-size="10.00">src/hooks/useRealtimeVehicles.js</text>
</g>
<!-- src/hooks/useRealtimeVehicles.js&#45;&gt;src/api/ApiClient.js -->
<g id="edge11" class="edge">
<title>src/hooks/useRealtimeVehicles.js-&gt;src/api/ApiClient.js</title>
<path fill="none" stroke="black" d="M465.98,-160.45C489.92,-163.91 514.11,-172.27 530.75,-190 578.69,-241.06 540.74,-436.06 557.75,-504 579.78,-591.94 632.58,-686.18 660.32,-731.9"/>
<polygon fill="black" stroke="black" points="657.31,-733.69 665.53,-740.39 663.28,-730.03 657.31,-733.69"/>
</g>
<!-- src/hooks/useRouteCards.js -->
<g id="node25" class="node">
<title>src/hooks/useRouteCards.js</title>
<path fill="none" stroke="black" d="M441.7,-451C441.7,-451 324.64,-451 324.64,-451 318.64,-451 312.64,-445 312.64,-439 312.64,-439 312.64,-427 312.64,-427 312.64,-421 318.64,-415 324.64,-415 324.64,-415 441.7,-415 441.7,-415 447.7,-415 453.7,-421 453.7,-427 453.7,-427 453.7,-439 453.7,-439 453.7,-445 447.7,-451 441.7,-451"/>
<text xml:space="preserve" text-anchor="middle" x="383.17" y="-430" font-family="Helvetica,sans-Serif" font-size="10.00">src/hooks/useRouteCards.js</text>
</g>
<!-- src/hooks/useRouteScheduleFallbacks.js -->
<g id="node26" class="node">
<title>src/hooks/useRouteScheduleFallbacks.js</title>
<path fill="none" stroke="black" d="M470.33,-505C470.33,-505 296.01,-505 296.01,-505 290.01,-505 284.01,-499 284.01,-493 284.01,-493 284.01,-481 284.01,-481 284.01,-475 290.01,-469 296.01,-469 296.01,-469 470.33,-469 470.33,-469 476.33,-469 482.33,-475 482.33,-481 482.33,-481 482.33,-493 482.33,-493 482.33,-499 476.33,-505 470.33,-505"/>
<text xml:space="preserve" text-anchor="middle" x="383.17" y="-484" font-family="Helvetica,sans-Serif" font-size="10.00">src/hooks/useRouteScheduleFallbacks.js</text>
</g>
<!-- src/hooks/useRouteStopIds.js -->
<g id="node27" class="node">
<title>src/hooks/useRouteStopIds.js</title>
<path fill="none" stroke="black" d="M445.31,-559C445.31,-559 321.02,-559 321.02,-559 315.02,-559 309.02,-553 309.02,-547 309.02,-547 309.02,-535 309.02,-535 309.02,-529 315.02,-523 321.02,-523 321.02,-523 445.31,-523 445.31,-523 451.31,-523 457.31,-529 457.31,-535 457.31,-535 457.31,-547 457.31,-547 457.31,-553 451.31,-559 445.31,-559"/>
<text xml:space="preserve" text-anchor="middle" x="383.17" y="-538" font-family="Helvetica,sans-Serif" font-size="10.00">src/hooks/useRouteStopIds.js</text>
</g>
<!-- src/hooks/useSelectedStop.js -->
<g id="node28" class="node">
<title>src/hooks/useSelectedStop.js</title>
<path fill="none" stroke="black" d="M444.76,-613C444.76,-613 321.58,-613 321.58,-613 315.58,-613 309.58,-607 309.58,-601 309.58,-601 309.58,-589 309.58,-589 309.58,-583 315.58,-577 321.58,-577 321.58,-577 444.76,-577 444.76,-577 450.76,-577 456.76,-583 456.76,-589 456.76,-589 456.76,-601 456.76,-601 456.76,-607 450.76,-613 444.76,-613"/>
<text xml:space="preserve" text-anchor="middle" x="383.17" y="-592" font-family="Helvetica,sans-Serif" font-size="10.00">src/hooks/useSelectedStop.js</text>
</g>
<!-- src/hooks/useShapeCoordinates.js -->
<g id="node29" class="node">
<title>src/hooks/useShapeCoordinates.js</title>
<path fill="none" stroke="black" d="M456.43,-289C456.43,-289 309.9,-289 309.9,-289 303.9,-289 297.9,-283 297.9,-277 297.9,-277 297.9,-265 297.9,-265 297.9,-259 303.9,-253 309.9,-253 309.9,-253 456.43,-253 456.43,-253 462.43,-253 468.43,-259 468.43,-265 468.43,-265 468.43,-277 468.43,-277 468.43,-283 462.43,-289 456.43,-289"/>
<text xml:space="preserve" text-anchor="middle" x="383.17" y="-268" font-family="Helvetica,sans-Serif" font-size="10.00">src/hooks/useShapeCoordinates.js</text>
</g>
<!-- src/hooks/useShapeCoordinates.js&#45;&gt;src/api/ApiClient.js -->
<g id="edge13" class="edge">
<title>src/hooks/useShapeCoordinates.js-&gt;src/api/ApiClient.js</title>
<path fill="none" stroke="black" d="M468.78,-269.16C491.7,-272.89 514.61,-281.21 530.75,-298 562.75,-331.28 545.29,-459.55 557.75,-504 582.23,-591.29 633.95,-685.82 660.89,-731.75"/>
<polygon fill="black" stroke="black" points="657.83,-733.45 665.94,-740.27 663.85,-729.88 657.83,-733.45"/>
</g>
<!-- src/hooks/useStaleVehicles.js -->
<g id="node30" class="node">
<title>src/hooks/useStaleVehicles.js</title>
<path fill="none" stroke="black" d="M445.31,-721C445.31,-721 321.03,-721 321.03,-721 315.03,-721 309.03,-715 309.03,-709 309.03,-709 309.03,-697 309.03,-697 309.03,-691 315.03,-685 321.03,-685 321.03,-685 445.31,-685 445.31,-685 451.31,-685 457.31,-691 457.31,-697 457.31,-697 457.31,-709 457.31,-709 457.31,-715 451.31,-721 445.31,-721"/>
<text xml:space="preserve" text-anchor="middle" x="383.17" y="-700" font-family="Helvetica,sans-Serif" font-size="10.00">src/hooks/useStaleVehicles.js</text>
</g>
<!-- src/hooks/useStaticSummary.js -->
<g id="node31" class="node">
<title>src/hooks/useStaticSummary.js</title>
<path fill="none" stroke="black" d="M448.91,-397C448.91,-397 317.43,-397 317.43,-397 311.43,-397 305.43,-391 305.43,-385 305.43,-385 305.43,-373 305.43,-373 305.43,-367 311.43,-361 317.43,-361 317.43,-361 448.91,-361 448.91,-361 454.91,-361 460.91,-367 460.91,-373 460.91,-373 460.91,-385 460.91,-385 460.91,-391 454.91,-397 448.91,-397"/>
<text xml:space="preserve" text-anchor="middle" x="383.17" y="-376" font-family="Helvetica,sans-Serif" font-size="10.00">src/hooks/useStaticSummary.js</text>
</g>
<!-- src/hooks/useStaticSummary.js&#45;&gt;src/api/ApiClient.js -->
<g id="edge14" class="edge">
<title>src/hooks/useStaticSummary.js-&gt;src/api/ApiClient.js</title>
<path fill="none" stroke="black" d="M461.4,-377.57C486.2,-380.89 512.06,-388.86 530.75,-406 564.05,-436.53 542.09,-461.62 557.75,-504 589.26,-589.25 638.07,-685.04 662.7,-731.57"/>
<polygon fill="black" stroke="black" points="659.49,-733 667.28,-740.19 665.67,-729.71 659.49,-733"/>
</g>
<!-- src/hooks/useStatusBannerMessage.js -->
<g id="node32" class="node">
<title>src/hooks/useStatusBannerMessage.js</title>
<path fill="none" stroke="black" d="M465.6,-829C465.6,-829 300.74,-829 300.74,-829 294.74,-829 288.74,-823 288.74,-817 288.74,-817 288.74,-805 288.74,-805 288.74,-799 294.74,-793 300.74,-793 300.74,-793 465.6,-793 465.6,-793 471.6,-793 477.6,-799 477.6,-805 477.6,-805 477.6,-817 477.6,-817 477.6,-823 471.6,-829 465.6,-829"/>
<text xml:space="preserve" text-anchor="middle" x="383.17" y="-808" font-family="Helvetica,sans-Serif" font-size="10.00">src/hooks/useStatusBannerMessage.js</text>
</g>
<!-- src/hooks/useStopVisibility.js -->
<g id="node33" class="node">
<title>src/hooks/useStopVisibility.js</title>
<path fill="none" stroke="black" d="M443.36,-883C443.36,-883 322.98,-883 322.98,-883 316.98,-883 310.98,-877 310.98,-871 310.98,-871 310.98,-859 310.98,-859 310.98,-853 316.98,-847 322.98,-847 322.98,-847 443.36,-847 443.36,-847 449.36,-847 455.36,-853 455.36,-859 455.36,-859 455.36,-871 455.36,-871 455.36,-877 449.36,-883 443.36,-883"/>
<text xml:space="preserve" text-anchor="middle" x="383.17" y="-862" font-family="Helvetica,sans-Serif" font-size="10.00">src/hooks/useStopVisibility.js</text>
</g>
<!-- src/hooks/useUpcomingArrivals.js -->
<g id="node34" class="node">
<title>src/hooks/useUpcomingArrivals.js</title>
<path fill="none" stroke="black" d="M454.19,-667C454.19,-667 312.14,-667 312.14,-667 306.14,-667 300.14,-661 300.14,-655 300.14,-655 300.14,-643 300.14,-643 300.14,-637 306.14,-631 312.14,-631 312.14,-631 454.19,-631 454.19,-631 460.19,-631 466.19,-637 466.19,-643 466.19,-643 466.19,-655 466.19,-655 466.19,-661 460.19,-667 454.19,-667"/>
<text xml:space="preserve" text-anchor="middle" x="383.17" y="-646" font-family="Helvetica,sans-Serif" font-size="10.00">src/hooks/useUpcomingArrivals.js</text>
</g>
<!-- src/hooks/useUpcomingArrivals.js&#45;&gt;src/api/ApiClient.js -->
<g id="edge12" class="edge">
<title>src/hooks/useUpcomingArrivals.js-&gt;src/api/ApiClient.js</title>
<path fill="none" stroke="black" d="M466.5,-659.16C487.81,-663.14 510.46,-668.59 530.75,-676 571.49,-690.88 614.12,-716.46 642.97,-735.49"/>
<polygon fill="black" stroke="black" points="640.68,-738.17 650.94,-740.83 644.58,-732.36 640.68,-738.17"/>
</g>
<!-- src/hooks/useUserLocation.js -->
<g id="node35" class="node">
<title>src/hooks/useUserLocation.js</title>
<path fill="none" stroke="black" d="M444.48,-991C444.48,-991 321.86,-991 321.86,-991 315.86,-991 309.86,-985 309.86,-979 309.86,-979 309.86,-967 309.86,-967 309.86,-961 315.86,-955 321.86,-955 321.86,-955 444.48,-955 444.48,-955 450.48,-955 456.48,-961 456.48,-967 456.48,-967 456.48,-979 456.48,-979 456.48,-985 450.48,-991 444.48,-991"/>
<text xml:space="preserve" text-anchor="middle" x="383.17" y="-970" font-family="Helvetica,sans-Serif" font-size="10.00">src/hooks/useUserLocation.js</text>
</g>
<!-- src/hooks/useVehicleSelection.js -->
<g id="node36" class="node">
<title>src/hooks/useVehicleSelection.js</title>
<path fill="none" stroke="black" d="M451.98,-1045C451.98,-1045 314.35,-1045 314.35,-1045 308.35,-1045 302.35,-1039 302.35,-1033 302.35,-1033 302.35,-1021 302.35,-1021 302.35,-1015 308.35,-1009 314.35,-1009 314.35,-1009 451.98,-1009 451.98,-1009 457.98,-1009 463.98,-1015 463.98,-1021 463.98,-1021 463.98,-1033 463.98,-1033 463.98,-1039 457.98,-1045 451.98,-1045"/>
<text xml:space="preserve" text-anchor="middle" x="383.17" y="-1024" font-family="Helvetica,sans-Serif" font-size="10.00">src/hooks/useVehicleSelection.js</text>
</g>
<!-- src/hooks/useVisibleStopsList.js -->
<g id="node37" class="node">
<title>src/hooks/useVisibleStopsList.js</title>
<path fill="none" stroke="black" d="M450.31,-1099C450.31,-1099 316.03,-1099 316.03,-1099 310.03,-1099 304.03,-1093 304.03,-1087 304.03,-1087 304.03,-1075 304.03,-1075 304.03,-1069 310.03,-1063 316.03,-1063 316.03,-1063 450.31,-1063 450.31,-1063 456.31,-1063 462.31,-1069 462.31,-1075 462.31,-1075 462.31,-1087 462.31,-1087 462.31,-1093 456.31,-1099 450.31,-1099"/>
<text xml:space="preserve" text-anchor="middle" x="383.17" y="-1078" font-family="Helvetica,sans-Serif" font-size="10.00">src/hooks/useVisibleStopsList.js</text>
</g>
<!-- src/hooks/useWalkingDirections.js -->
<g id="node38" class="node">
<title>src/hooks/useWalkingDirections.js</title>
<path fill="none" stroke="black" d="M455.03,-775C455.03,-775 311.31,-775 311.31,-775 305.31,-775 299.31,-769 299.31,-763 299.31,-763 299.31,-751 299.31,-751 299.31,-745 305.31,-739 311.31,-739 311.31,-739 455.03,-739 455.03,-739 461.03,-739 467.03,-745 467.03,-751 467.03,-751 467.03,-763 467.03,-763 467.03,-769 461.03,-775 455.03,-775"/>
<text xml:space="preserve" text-anchor="middle" x="383.17" y="-754" font-family="Helvetica,sans-Serif" font-size="10.00">src/hooks/useWalkingDirections.js</text>
</g>
<!-- src/hooks/useWalkingDirections.js&#45;&gt;src/api/ApiClient.js -->
<g id="edge15" class="edge">
<title>src/hooks/useWalkingDirections.js-&gt;src/api/ApiClient.js</title>
<path fill="none" stroke="black" d="M467.2,-757.85C515.34,-758.34 574.84,-758.95 618.35,-759.39"/>
<polygon fill="black" stroke="black" points="618.06,-762.89 628.09,-759.49 618.13,-755.89 618.06,-762.89"/>
</g>
<!-- src/constants/transit.js -->
<g id="node39" class="node">
<title>src/constants/transit.js</title>
<path fill="none" stroke="black" d="M428.63,-1238C428.63,-1238 337.71,-1238 337.71,-1238 331.71,-1238 325.71,-1232 325.71,-1226 325.71,-1226 325.71,-1214 325.71,-1214 325.71,-1208 331.71,-1202 337.71,-1202 337.71,-1202 428.63,-1202 428.63,-1202 434.63,-1202 440.63,-1208 440.63,-1214 440.63,-1214 440.63,-1226 440.63,-1226 440.63,-1232 434.63,-1238 428.63,-1238"/>
<text xml:space="preserve" text-anchor="middle" x="383.17" y="-1217" font-family="Helvetica,sans-Serif" font-size="10.00">src/constants/transit.js</text>
</g>
<!-- src/constants/routeColors.js -->
<g id="node40" class="node">
<title>src/constants/routeColors.js</title>
<path fill="none" stroke="black" d="M440.86,-1292C440.86,-1292 325.48,-1292 325.48,-1292 319.48,-1292 313.48,-1286 313.48,-1280 313.48,-1280 313.48,-1268 313.48,-1268 313.48,-1262 319.48,-1256 325.48,-1256 325.48,-1256 440.86,-1256 440.86,-1256 446.86,-1256 452.86,-1262 452.86,-1268 452.86,-1268 452.86,-1280 452.86,-1280 452.86,-1286 446.86,-1292 440.86,-1292"/>
<text xml:space="preserve" text-anchor="middle" x="383.17" y="-1271" font-family="Helvetica,sans-Serif" font-size="10.00">src/constants/routeColors.js</text>
</g>
<!-- src/utils/clamp.js -->
<g id="node41" class="node">
<title>src/utils/clamp.js</title>
<path fill="none" stroke="black" d="M415.84,-1377C415.84,-1377 350.5,-1377 350.5,-1377 344.5,-1377 338.5,-1371 338.5,-1365 338.5,-1365 338.5,-1353 338.5,-1353 338.5,-1347 344.5,-1341 350.5,-1341 350.5,-1341 415.84,-1341 415.84,-1341 421.84,-1341 427.84,-1347 427.84,-1353 427.84,-1353 427.84,-1365 427.84,-1365 427.84,-1371 421.84,-1377 415.84,-1377"/>
<text xml:space="preserve" text-anchor="middle" x="383.17" y="-1356" font-family="Helvetica,sans-Serif" font-size="10.00">src/utils/clamp.js</text>
</g>
<!-- src/utils/dedupeVehiclesById.js -->
<g id="node42" class="node">
<title>src/utils/dedupeVehiclesById.js</title>
<path fill="none" stroke="black" d="M448.09,-1431C448.09,-1431 318.25,-1431 318.25,-1431 312.25,-1431 306.25,-1425 306.25,-1419 306.25,-1419 306.25,-1407 306.25,-1407 306.25,-1401 312.25,-1395 318.25,-1395 318.25,-1395 448.09,-1395 448.09,-1395 454.09,-1395 460.09,-1401 460.09,-1407 460.09,-1407 460.09,-1419 460.09,-1419 460.09,-1425 454.09,-1431 448.09,-1431"/>
<text xml:space="preserve" text-anchor="middle" x="383.17" y="-1410" font-family="Helvetica,sans-Serif" font-size="10.00">src/utils/dedupeVehiclesById.js</text>
</g>
<!-- src/utils/estimateEtaMinutes.js -->
<g id="node43" class="node">
<title>src/utils/estimateEtaMinutes.js</title>
<path fill="none" stroke="black" d="M446.41,-1485C446.41,-1485 319.93,-1485 319.93,-1485 313.93,-1485 307.93,-1479 307.93,-1473 307.93,-1473 307.93,-1461 307.93,-1461 307.93,-1455 313.93,-1449 319.93,-1449 319.93,-1449 446.41,-1449 446.41,-1449 452.41,-1449 458.41,-1455 458.41,-1461 458.41,-1461 458.41,-1473 458.41,-1473 458.41,-1479 452.41,-1485 446.41,-1485"/>
<text xml:space="preserve" text-anchor="middle" x="383.17" y="-1464" font-family="Helvetica,sans-Serif" font-size="10.00">src/utils/estimateEtaMinutes.js</text>
</g>
<!-- src/utils/estimateEtaToStop.js -->
<g id="node44" class="node">
<title>src/utils/estimateEtaToStop.js</title>
<path fill="none" stroke="black" d="M445.03,-1539C445.03,-1539 321.31,-1539 321.31,-1539 315.31,-1539 309.31,-1533 309.31,-1527 309.31,-1527 309.31,-1515 309.31,-1515 309.31,-1509 315.31,-1503 321.31,-1503 321.31,-1503 445.03,-1503 445.03,-1503 451.03,-1503 457.03,-1509 457.03,-1515 457.03,-1515 457.03,-1527 457.03,-1527 457.03,-1533 451.03,-1539 445.03,-1539"/>
<text xml:space="preserve" text-anchor="middle" x="383.17" y="-1518" font-family="Helvetica,sans-Serif" font-size="10.00">src/utils/estimateEtaToStop.js</text>
</g>
<!-- src/utils/formatClockTime.js -->
<g id="node45" class="node">
<title>src/utils/formatClockTime.js</title>
<path fill="none" stroke="black" d="M440.29,-1593C440.29,-1593 326.05,-1593 326.05,-1593 320.05,-1593 314.05,-1587 314.05,-1581 314.05,-1581 314.05,-1569 314.05,-1569 314.05,-1563 320.05,-1557 326.05,-1557 326.05,-1557 440.29,-1557 440.29,-1557 446.29,-1557 452.29,-1563 452.29,-1569 452.29,-1569 452.29,-1581 452.29,-1581 452.29,-1587 446.29,-1593 440.29,-1593"/>
<text xml:space="preserve" text-anchor="middle" x="383.17" y="-1572" font-family="Helvetica,sans-Serif" font-size="10.00">src/utils/formatClockTime.js</text>
</g>
<!-- src/utils/formatRelativeTime.js -->
<g id="node46" class="node">
<title>src/utils/formatRelativeTime.js</title>
<path fill="none" stroke="black" d="M445.85,-1647C445.85,-1647 320.49,-1647 320.49,-1647 314.49,-1647 308.49,-1641 308.49,-1635 308.49,-1635 308.49,-1623 308.49,-1623 308.49,-1617 314.49,-1611 320.49,-1611 320.49,-1611 445.85,-1611 445.85,-1611 451.85,-1611 457.85,-1617 457.85,-1623 457.85,-1623 457.85,-1635 457.85,-1635 457.85,-1641 451.85,-1647 445.85,-1647"/>
<text xml:space="preserve" text-anchor="middle" x="383.17" y="-1626" font-family="Helvetica,sans-Serif" font-size="10.00">src/utils/formatRelativeTime.js</text>
</g>
<!-- src/utils/haversineDistanceKm.js -->
<g id="node47" class="node">
<title>src/utils/haversineDistanceKm.js</title>
<path fill="none" stroke="black" d="M451.14,-1701C451.14,-1701 315.2,-1701 315.2,-1701 309.2,-1701 303.2,-1695 303.2,-1689 303.2,-1689 303.2,-1677 303.2,-1677 303.2,-1671 309.2,-1665 315.2,-1665 315.2,-1665 451.14,-1665 451.14,-1665 457.14,-1665 463.14,-1671 463.14,-1677 463.14,-1677 463.14,-1689 463.14,-1689 463.14,-1695 457.14,-1701 451.14,-1701"/>
<text xml:space="preserve" text-anchor="middle" x="383.17" y="-1680" font-family="Helvetica,sans-Serif" font-size="10.00">src/utils/haversineDistanceKm.js</text>
</g>
<!-- src/utils/isFiniteNumber.js -->
<g id="node48" class="node">
<title>src/utils/isFiniteNumber.js</title>
<path fill="none" stroke="black" d="M436.12,-1755C436.12,-1755 330.21,-1755 330.21,-1755 324.21,-1755 318.21,-1749 318.21,-1743 318.21,-1743 318.21,-1731 318.21,-1731 318.21,-1725 324.21,-1719 330.21,-1719 330.21,-1719 436.12,-1719 436.12,-1719 442.12,-1719 448.12,-1725 448.12,-1731 448.12,-1731 448.12,-1743 448.12,-1743 448.12,-1749 442.12,-1755 436.12,-1755"/>
<text xml:space="preserve" text-anchor="middle" x="383.17" y="-1734" font-family="Helvetica,sans-Serif" font-size="10.00">src/utils/isFiniteNumber.js</text>
</g>
<!-- src/utils/normaliseColor.js -->
<g id="node49" class="node">
<title>src/utils/normaliseColor.js</title>
<path fill="none" stroke="black" d="M436.13,-1809C436.13,-1809 330.21,-1809 330.21,-1809 324.21,-1809 318.21,-1803 318.21,-1797 318.21,-1797 318.21,-1785 318.21,-1785 318.21,-1779 324.21,-1773 330.21,-1773 330.21,-1773 436.13,-1773 436.13,-1773 442.13,-1773 448.13,-1779 448.13,-1785 448.13,-1785 448.13,-1797 448.13,-1797 448.13,-1803 442.13,-1809 436.13,-1809"/>
<text xml:space="preserve" text-anchor="middle" x="383.17" y="-1788" font-family="Helvetica,sans-Serif" font-size="10.00">src/utils/normaliseColor.js</text>
</g>
<!-- src/utils/resolveRouteColor.js -->
<g id="node50" class="node">
<title>src/utils/resolveRouteColor.js</title>
<path fill="none" stroke="black" d="M443.91,-1863C443.91,-1863 322.43,-1863 322.43,-1863 316.43,-1863 310.43,-1857 310.43,-1851 310.43,-1851 310.43,-1839 310.43,-1839 310.43,-1833 316.43,-1827 322.43,-1827 322.43,-1827 443.91,-1827 443.91,-1827 449.91,-1827 455.91,-1833 455.91,-1839 455.91,-1839 455.91,-1851 455.91,-1851 455.91,-1857 449.91,-1863 443.91,-1863"/>
<text xml:space="preserve" text-anchor="middle" x="383.17" y="-1842" font-family="Helvetica,sans-Serif" font-size="10.00">src/utils/resolveRouteColor.js</text>
</g>
<!-- src/utils/toRadians.js -->
<g id="node51" class="node">
<title>src/utils/toRadians.js</title>
<path fill="none" stroke="black" d="M425.02,-1917C425.02,-1917 341.32,-1917 341.32,-1917 335.32,-1917 329.32,-1911 329.32,-1905 329.32,-1905 329.32,-1893 329.32,-1893 329.32,-1887 335.32,-1881 341.32,-1881 341.32,-1881 425.02,-1881 425.02,-1881 431.02,-1881 437.02,-1887 437.02,-1893 437.02,-1893 437.02,-1905 437.02,-1905 437.02,-1911 431.02,-1917 425.02,-1917"/>
<text xml:space="preserve" text-anchor="middle" x="383.17" y="-1896" font-family="Helvetica,sans-Serif" font-size="10.00">src/utils/toRadians.js</text>
</g>
<!-- src/utils/vehiclesEqual.js -->
<g id="node52" class="node">
<title>src/utils/vehiclesEqual.js</title>
<path fill="none" stroke="black" d="M433.36,-1971C433.36,-1971 332.98,-1971 332.98,-1971 326.98,-1971 320.98,-1965 320.98,-1959 320.98,-1959 320.98,-1947 320.98,-1947 320.98,-1941 326.98,-1935 332.98,-1935 332.98,-1935 433.36,-1935 433.36,-1935 439.36,-1935 445.36,-1941 445.36,-1947 445.36,-1947 445.36,-1959 445.36,-1959 445.36,-1965 439.36,-1971 433.36,-1971"/>
<text xml:space="preserve" text-anchor="middle" x="383.17" y="-1950" font-family="Helvetica,sans-Serif" font-size="10.00">src/utils/vehiclesEqual.js</text>
</g>
<!-- src/styles/darkMapStyles.js -->
<g id="node54" class="node">
<title>src/styles/darkMapStyles.js</title>
<path fill="none" stroke="black" d="M1033.83,-639C1033.83,-639 921.24,-639 921.24,-639 915.24,-639 909.24,-633 909.24,-627 909.24,-627 909.24,-615 909.24,-615 909.24,-609 915.24,-603 921.24,-603 921.24,-603 1033.83,-603 1033.83,-603 1039.83,-603 1045.83,-609 1045.83,-615 1045.83,-615 1045.83,-627 1045.83,-627 1045.83,-633 1039.83,-639 1033.83,-639"/>
<text xml:space="preserve" text-anchor="middle" x="977.54" y="-618" font-family="Helvetica,sans-Serif" font-size="10.00">src/styles/darkMapStyles.js</text>
</g>
<!-- src/styles/lightMapStyles.js -->
<g id="node55" class="node">
<title>src/styles/lightMapStyles.js</title>
<path fill="none" stroke="black" d="M1033.27,-693C1033.27,-693 921.8,-693 921.8,-693 915.8,-693 909.8,-687 909.8,-681 909.8,-681 909.8,-669 909.8,-669 909.8,-663 915.8,-657 921.8,-657 921.8,-657 1033.27,-657 1033.27,-657 1039.27,-657 1045.27,-663 1045.27,-669 1045.27,-669 1045.27,-681 1045.27,-681 1045.27,-687 1039.27,-693 1033.27,-693"/>
<text xml:space="preserve" text-anchor="middle" x="977.54" y="-672" font-family="Helvetica,sans-Serif" font-size="10.00">src/styles/lightMapStyles.js</text>
</g>
</g>
</svg>